<svg width="1405" height="481" viewBox="0 0 1405 481" fill="none" xmlns="http://www.w3.org/2000/svg">
<g clip-path="url(#clip0_39_65)">
<mask id="mask0_39_65" style="mask-type:luminance" maskUnits="userSpaceOnUse" x="0" y="0" width="1440" height="481">
<path d="M1440 0H0V481H1440V0Z" fill="white"/>
</mask>
<g mask="url(#mask0_39_65)">
<path d="M1602.07 52.05C1468.64 53.41 1283.57 196.79 1088.19 196.35C892.81 195.91 921.93 -53.01 831.25 -76.84" stroke="#FF90B0" stroke-width="2"/>
<path d="M1614.15 336.26C1432.08 335.01 1271.77 165.93 906.73 163.1C541.68 160.27 382.29 -23.3 199.3 -24.89" stroke="#FF90B0" stroke-width="2"/>
<path d="M1480.49 63.76C1300.24 64.09 1125.65 174.51 768.03 174.39C410.4 174.27 243.24 -59.5 55.56 -62.58" stroke="#FF90B0" stroke-width="2"/>
<path d="M1533.38 278.87C1424.91 278.72 1318.53 218.74 1103.68 218.74C888.83 218.74 898.53 281.74 673.99 278.87C449.45 276 377.34 -25.4 244.29 -42.51" stroke="#FF90B0" stroke-width="2"/>
<path d="M1595.5 387.68C1483.62 387.54 1373.78 327.55 1152.06 327.55C930.33 327.56 948.96 395.13 708.61 387.68C468.27 380.23 416.29 -10.98 265.17 -44.69" stroke="#FF90B0" stroke-width="2"/>
</g>
</g>
<defs>
<clipPath id="clip0_39_65">
<rect width="1440" height="481" fill="white"/>
</clipPath>
</defs>
</svg>
