<svg width="250" height="178" viewBox="0 0 250 178" fill="none" xmlns="http://www.w3.org/2000/svg">
<rect width="250" height="178" fill="#FFE9F3"/>
<path d="M49.056 111.728C52.224 111.728 55.008 112.368 57.408 113.648C59.84 114.896 61.712 116.736 63.024 119.168C64.368 121.568 65.04 124.464 65.04 127.856V146H55.536V138.56H42.432V146H33.072V127.856C33.072 124.464 33.728 121.568 35.04 119.168C36.384 116.736 38.256 114.896 40.656 113.648C43.088 112.368 45.888 111.728 49.056 111.728ZM55.536 131.216V127.04C55.536 124.576 54.944 122.72 53.76 121.472C52.576 120.224 50.992 119.6 49.008 119.6C46.992 119.6 45.392 120.224 44.208 121.472C43.024 122.72 42.432 124.576 42.432 127.04V131.216H55.536ZM98.3974 119.984V146H89.7094V143.216C88.7494 144.272 87.5974 145.072 86.2534 145.616C84.9094 146.16 83.4854 146.432 81.9814 146.432C78.6214 146.432 75.9334 145.44 73.9174 143.456C71.9334 141.472 70.9414 138.496 70.9414 134.528V119.984H80.0614V133.04C80.0614 134.992 80.4294 136.416 81.1654 137.312C81.9014 138.208 82.9734 138.656 84.3814 138.656C85.8214 138.656 86.9894 138.16 87.8854 137.168C88.8134 136.144 89.2774 134.592 89.2774 132.512V119.984H98.3974ZM112.96 123.104C113.888 121.92 115.088 121.04 116.56 120.464C118.064 119.856 119.776 119.552 121.696 119.552V127.76C120.864 127.664 120.176 127.616 119.632 127.616C117.68 127.616 116.144 128.144 115.024 129.2C113.936 130.256 113.392 131.872 113.392 134.048V146H104.272V119.984H112.96V123.104ZM138.281 146.432C135.497 146.432 132.985 145.856 130.745 144.704C128.505 143.552 126.745 141.952 125.465 139.904C124.217 137.856 123.593 135.536 123.593 132.944C123.593 130.384 124.217 128.08 125.465 126.032C126.745 123.984 128.489 122.4 130.697 121.28C132.937 120.128 135.465 119.552 138.281 119.552C141.097 119.552 143.625 120.128 145.865 121.28C148.105 122.4 149.849 123.984 151.097 126.032C152.345 128.048 152.969 130.352 152.969 132.944C152.969 135.536 152.345 137.856 151.097 139.904C149.849 141.952 148.105 143.552 145.865 144.704C143.625 145.856 141.097 146.432 138.281 146.432ZM138.281 139.184C139.881 139.184 141.193 138.64 142.217 137.552C143.241 136.432 143.753 134.896 143.753 132.944C143.753 131.024 143.241 129.52 142.217 128.432C141.193 127.344 139.881 126.8 138.281 126.8C136.681 126.8 135.369 127.344 134.345 128.432C133.321 129.52 132.809 131.024 132.809 132.944C132.809 134.896 133.321 136.432 134.345 137.552C135.369 138.64 136.681 139.184 138.281 139.184ZM165.882 123.104C166.81 121.92 168.01 121.04 169.482 120.464C170.986 119.856 172.698 119.552 174.618 119.552V127.76C173.786 127.664 173.098 127.616 172.554 127.616C170.602 127.616 169.066 128.144 167.946 129.2C166.858 130.256 166.314 131.872 166.314 134.048V146H157.194V119.984H165.882V123.104ZM205.651 119.984V146H196.963V143.408C195.267 145.424 192.707 146.432 189.283 146.432C186.915 146.432 184.755 145.888 182.803 144.8C180.883 143.68 179.347 142.096 178.195 140.048C177.075 138 176.515 135.632 176.515 132.944C176.515 130.256 177.075 127.904 178.195 125.888C179.347 123.84 180.883 122.272 182.803 121.184C184.755 120.096 186.915 119.552 189.283 119.552C192.355 119.552 194.771 120.448 196.531 122.24V119.984H205.651ZM191.203 139.184C192.803 139.184 194.115 138.64 195.139 137.552C196.163 136.432 196.675 134.896 196.675 132.944C196.675 131.024 196.163 129.52 195.139 128.432C194.115 127.344 192.803 126.8 191.203 126.8C189.603 126.8 188.291 127.344 187.267 128.432C186.243 129.52 185.731 131.024 185.731 132.944C185.731 134.896 186.243 136.432 187.267 137.552C188.291 138.64 189.603 139.184 191.203 139.184Z" fill="url(#paint0_linear_2324_318)"/>
<path d="M172.299 64.5924C171.955 63.9867 171.494 63.457 170.942 63.0349C170.391 62.6127 169.761 62.3067 169.09 62.135C164.53 61.0164 159.789 60.8636 155.168 61.6863C157.143 53.0341 155.874 46.2209 154.596 42.2551C154.2 41.0161 153.361 39.9697 152.242 39.3189C151.124 38.6681 149.805 38.4594 148.542 38.7332C144.05 39.7435 139.801 41.6444 136.044 44.3252C133.392 37.9015 129.113 32.2923 123.635 28.0585C122.731 27.3715 121.63 26.9999 120.498 27C119.366 27.0001 118.265 27.3718 117.362 28.0589C111.884 32.2925 107.604 37.9016 104.952 44.3252C101.195 41.6444 96.9469 39.7435 92.4542 38.7332C91.1914 38.4594 89.8727 38.6682 88.7541 39.3191C87.6354 39.9699 86.7966 41.0165 86.4003 42.2555C85.1224 46.2209 83.8532 53.0343 85.8288 61.6863C81.2072 60.8639 76.4665 61.0167 71.9065 62.135C71.2363 62.309 70.6074 62.616 70.0564 63.0379C69.5053 63.4598 69.0433 63.9883 68.6973 64.5923C68.3513 65.1963 68.1283 65.8638 68.0413 66.5557C67.9543 67.2476 68.0051 67.9501 68.1906 68.622C69.6596 73.9154 74.1733 83.9886 87.9018 91.9772C101.684 99.997 113.916 99.9996 120.491 99.9996L120.497 100L120.498 99.9998L120.5 100L120.505 99.9995C127.08 99.9995 139.312 99.997 153.095 91.9772C166.823 83.9886 171.337 73.9154 172.806 68.622C172.994 67.9504 173.046 67.2476 172.959 66.5553C172.872 65.863 172.648 65.1954 172.299 64.5924ZM149.267 42.1656C149.688 42.0751 150.127 42.145 150.499 42.3618C150.872 42.5786 151.152 42.9269 151.284 43.3394C152.55 47.2675 153.796 54.3009 151.142 63.3157C151.106 63.408 151.079 63.5031 151.059 63.6C149.994 67.0635 148.538 70.3928 146.722 73.523C142.979 79.9424 138.012 85.5512 132.108 90.0258C131.744 90.3029 131.382 90.5692 131.023 90.8294C135.42 84.995 139.65 76.0356 139.65 63.1495C139.69 57.9142 138.9 52.706 137.31 47.7218C140.862 45.0406 144.937 43.147 149.267 42.1656ZM119.445 30.8714C119.748 30.6405 120.118 30.5155 120.498 30.5154C120.878 30.5153 121.248 30.6402 121.552 30.871C125.946 34.177 136.168 43.9405 136.168 63.1495C136.168 73.2642 133.399 81.9785 127.938 89.0503C125.842 91.8025 123.332 94.2071 120.498 96.1769C117.664 94.2071 115.154 91.8025 113.058 89.0503C107.598 81.9785 104.829 73.2642 104.829 63.1495C104.829 43.9405 115.05 34.177 119.445 30.8714ZM89.7121 43.3398C89.8446 42.9272 90.1243 42.5787 90.4969 42.3618C90.8696 42.1449 91.3088 42.075 91.7297 42.1656C96.0593 43.147 100.134 45.0406 103.686 47.7218C102.096 52.7061 101.307 57.9142 101.347 63.1495C101.347 76.0356 105.577 84.995 109.974 90.8295C109.614 90.5692 109.253 90.3029 108.889 90.0258C102.984 85.5512 98.0171 79.9424 94.2745 73.523C92.4509 70.3806 90.9916 67.0375 89.9253 63.5593C89.9079 63.4778 89.8848 63.3977 89.856 63.3196C87.2005 54.3029 88.4463 47.2681 89.7121 43.3398ZM71.5441 67.6769C71.4834 67.4551 71.4671 67.2232 71.4961 66.9949C71.5251 66.7667 71.5989 66.5465 71.7131 66.3472C71.8272 66.1479 71.9796 65.9734 72.1612 65.834C72.3429 65.6945 72.5503 65.5928 72.7712 65.5349C75.7957 64.7535 80.6457 64.1374 86.8679 65.4537C87.9872 68.8739 89.4589 72.1666 91.2589 75.2777C96.8648 85.0639 105.038 92.1016 111.647 96.1353C103.883 95.3636 96.3768 92.9084 89.6429 88.938C76.9844 81.572 72.8701 72.4554 71.5441 67.6769ZM169.452 67.6769C168.126 72.4554 164.012 81.572 151.354 88.938C144.62 92.9084 137.113 95.3636 129.349 96.1353C135.959 92.1016 144.132 85.0639 149.738 75.2778C151.537 72.1666 153.009 68.874 154.128 65.4539C160.351 64.1374 165.201 64.7535 168.225 65.5349C168.446 65.5928 168.654 65.6945 168.835 65.834C169.017 65.9734 169.169 66.1479 169.283 66.3472C169.398 66.5465 169.471 66.7667 169.5 66.9949C169.529 67.2232 169.513 67.4551 169.452 67.6769Z" fill="url(#paint1_linear_2324_318)"/>
<defs>
<linearGradient id="paint0_linear_2324_318" x1="30" y1="128.5" x2="211" y2="128.556" gradientUnits="userSpaceOnUse">
<stop stop-color="#FE4497"/>
<stop offset="1" stop-color="#FFB7D7"/>
</linearGradient>
<linearGradient id="paint1_linear_2324_318" x1="120.5" y1="27" x2="120.5" y2="100" gradientUnits="userSpaceOnUse">
<stop stop-color="#FE4497"/>
<stop offset="1" stop-color="#FF88BD"/>
</linearGradient>
</defs>
</svg>
