<svg xmlns="http://www.w3.org/2000/svg" width="50" height="50" fill="none" viewBox="0 0 70 70"><path fill="#fff" fill-rule="evenodd" d="M19.528 4.903h-7.292c-4.027 0-7.292 3.237-7.292 7.231s3.265 7.232 7.292 7.232h7.292zm0-4.903h12.236C38.522 0 44 5.433 44 12.134c0 3.955-1.907 7.468-4.86 9.683C42.093 24.032 44 27.545 44 31.5c0 6.702-5.478 12.134-12.236 12.134a12.25 12.25 0 0 1-7.292-2.389v9.62C24.472 57.568 18.994 63 12.236 63S0 57.567 0 50.866c0-3.955 1.908-7.468 4.86-9.683C1.908 38.968 0 35.455 0 31.5s1.908-7.468 4.86-9.683C1.908 19.602 0 16.09 0 12.134 0 5.433 5.478 0 12.236 0zm4.944 4.903v14.463h7.292c4.028 0 7.292-3.238 7.292-7.232s-3.264-7.231-7.292-7.231zM12.236 38.73h7.292V24.268h-7.292c-4.027 0-7.292 3.238-7.292 7.232 0 3.984 3.249 7.216 7.263 7.231zM4.944 50.866c0-3.985 3.249-7.216 7.263-7.232h7.321v7.232c0 3.993-3.265 7.231-7.292 7.231s-7.292-3.238-7.292-7.231m19.528-19.38c.008-3.988 3.27-7.218 7.292-7.218 4.028 0 7.292 3.238 7.292 7.232s-3.264 7.231-7.292 7.231c-4.022 0-7.284-3.23-7.292-7.217z" clip-rule="evenodd"/></svg>